<?xml version="1.0" encoding="utf-8"?>
<!-- Generator: Adobe Illustrator 16.2.1, SVG Export Plug-In . SVG Version: 6.00 Build 0)  -->
<!DOCTYPE svg PUBLIC "-//W3C//DTD SVG 1.1//EN" "http://www.w3.org/Graphics/SVG/1.1/DTD/svg11.dtd">
<svg version="1.1" id="Layer_1" xmlns="http://www.w3.org/2000/svg" xmlns:xlink="http://www.w3.org/1999/xlink" x="0px" y="0px"
	 width="108.686px" height="108.82px" viewBox="244.05 366.656 108.686 108.82"
	 enable-background="new 244.05 366.656 108.686 108.82" xml:space="preserve">
<path fill="#FF6E00" d="M244.05,421.065c0-30.051,24.331-54.409,54.343-54.409s54.343,24.358,54.343,54.409
	s-24.331,54.411-54.343,54.411C268.38,475.476,244.05,451.117,244.05,421.065z M297.29,439.675
	c-5.344,0.006-9.535-0.365-12.554-1.131c-3.319-0.842-5.608-2.682-6.864-5.518c-1.257-2.836-1.854-7.203-1.791-13.098
	c0.026-3.177,0.219-6.255,0.575-9.232c0.355-2.98,0.712-5.44,1.067-7.382l0.374-1.93c0.009-0.057,0.014-0.115,0.014-0.174
	c0-0.546-0.396-0.999-0.916-1.088l-7.022-1.088c-0.057-0.01-0.115-0.014-0.175-0.014c-0.522,0-0.96,0.36-1.075,0.849
	c-0.116,0.45-0.189,0.785-0.4,1.854c-0.404,2.062-0.771,4.07-1.183,6.973c-0.409,2.899-0.673,6.106-0.792,9.617
	c0,0-0.17,0.781,0,6.73c0.17,5.949,1.192,10.699,3.068,14.254c1.874,3.555,5.052,6.113,9.535,7.674
	c4.484,1.561,10.726,2.324,18.724,2.291h1.04c7.998,0.033,14.237-0.73,18.722-2.291c4.483-1.561,7.662-4.119,9.537-7.674
	s2.896-8.305,3.065-14.254c0.17-5.949,0-6.73,0-6.73c-0.119-3.51-0.383-6.718-0.792-9.617c-0.41-2.901-0.775-4.91-1.183-6.973
	c-0.211-1.069-0.283-1.404-0.398-1.854c-0.115-0.488-0.554-0.849-1.075-0.849c-0.061,0-0.117,0.003-0.177,0.014l-7.021,1.088
	c-0.521,0.089-0.917,0.542-0.917,1.088c0,0.06,0.005,0.117,0.014,0.174l0.374,1.93c0.355,1.941,0.711,4.401,1.067,7.382
	c0.355,2.979,0.548,6.056,0.575,9.232c0.062,5.895-0.535,10.262-1.791,13.098c-1.257,2.836-3.546,4.676-6.865,5.518
	c-3.019,0.768-7.211,1.137-12.553,1.131H297.29L297.29,439.675z"/>
</svg>
